<?xml version="1.0" encoding="UTF-8" standalone="no"?>
<svg
   xmlns:dc="http://purl.org/dc/elements/1.1/"
   xmlns:cc="http://creativecommons.org/ns#"
   xmlns:rdf="http://www.w3.org/1999/02/22-rdf-syntax-ns#"
   xmlns:svg="http://www.w3.org/2000/svg"
   xmlns="http://www.w3.org/2000/svg"
   version="1.1"
   id="svg2"
   viewBox="0 0 1555.9827 126.42401"
   height="35.679665mm"
   width="439.1329mm">
  <defs
     id="defs4" />
  <metadata
     id="metadata7">
    <rdf:RDF>
      <cc:Work
         rdf:about="">
        <dc:format>image/svg+xml</dc:format>
        <dc:type
           rdf:resource="http://purl.org/dc/dcmitype/StillImage" />
        <dc:title></dc:title>
      </cc:Work>
    </rdf:RDF>
  </metadata>
  <g
     transform="translate(0,-925.9382)"
     id="layer1">
    <path
       id="path3396"
       d="m 895.5,1052.2445 c -7.15,0.1819 -14.575,0.1212 -16.5,-0.135 -1.925,-0.2561 -6.31652,-1.1083 -9.75893,-1.8938 -3.44242,-0.7854 -8.40133,-2.5137 -11.01981,-3.8405 -2.61848,-1.3269 -6.8516,-4.6477 -9.40693,-7.3796 -2.55533,-2.7318 -5.81213,-7.2681 -7.23733,-10.0806 -1.4252,-2.8125 -3.25641,-7.9348 -4.06936,-11.3828 -0.81294,-3.448 -1.48473,-6.8317 -1.49286,-7.5192 -0.0113,-0.954 4.22981,-1.25 17.91426,-1.25 l 17.92904,0 1.53921,5.25 c 0.84656,2.8875 2.6929,6.4834 4.10296,7.9909 1.41006,1.5075 4.01185,3.5206 5.78175,4.4736 2.1769,1.1722 5.48267,1.7328 10.218,1.7328 4.75302,0 8.04022,-0.56 10.24058,-1.7445 1.78232,-0.9594 4.0221,-2.9371 4.97728,-4.3949 0.95517,-1.4578 1.73669,-4.3481 1.73669,-6.4228 0,-2.6234 -0.7545,-4.5923 -2.47728,-6.4645 -1.3625,-1.4807 -4.27727,-3.499 -6.47727,-4.4851 -2.2,-0.9862 -9.4,-3.1537 -16,-4.81681 -6.6,-1.66311 -15.24834,-4.36381 -19.21853,-6.00155 -3.97019,-1.63775 -9.28328,-4.39831 -11.80687,-6.13458 -2.52359,-1.73628 -5.88857,-4.95177 -7.47774,-7.14555 -1.58916,-2.19378 -3.64682,-5.97201 -4.57258,-8.39607 -1.25006,-3.27324 -1.56385,-6.40597 -1.21941,-12.17414 0.32003,-5.35931 1.1571,-9.11495 2.7005,-12.11618 1.23019,-2.39218 4.05356,-6.32047 6.27416,-8.72953 2.2206,-2.40907 6.41007,-5.54093 9.30993,-6.9597 2.89985,-1.41877 7.68853,-3.237 10.6415,-4.04052 2.95297,-0.80352 10.54404,-1.73456 16.86904,-2.06897 6.93855,-0.36686 14.41176,-0.15138 18.84092,0.54323 4.03751,0.63319 9.73804,1.99377 12.66785,3.02352 2.92982,1.02975 7.3761,3.28213 9.88063,5.00529 2.50452,1.72316 5.9848,5.21307 7.73394,7.75536 1.74914,2.54229 4.01194,7.29457 5.02846,10.56063 1.01651,3.26606 1.8482,7.0232 1.8482,8.3492 l 0,2.4109 -17.25,-0.004 -17.25,-0.004 -2.5,-5.24644 c -1.97834,-4.15171 -3.43103,-5.71594 -6.96189,-7.49645 -2.78628,-1.40503 -6.27207,-2.25 -9.28212,-2.25 -2.65112,0 -6.34455,0.63691 -8.20762,1.41535 -1.86306,0.77843 -3.87361,2.32385 -4.46788,3.43425 -0.59427,1.11041 -1.08049,3.19396 -1.08049,4.63012 0,1.43615 1.03323,3.64443 2.29607,4.90727 1.704,1.70399 6.28112,3.26604 17.75,6.05758 8.49966,2.06883 18.91673,5.02469 23.14905,6.56859 4.23231,1.54389 10.15423,4.43935 13.15982,6.43434 3.00559,1.995 6.65332,5.18562 8.10607,7.09028 1.45276,1.90465 3.31594,5.07749 4.14042,7.05075 0.82448,1.97325 1.94774,6.01483 2.49612,8.98133 0.69316,3.7497 0.65445,7.2831 -0.12698,11.5925 -0.61823,3.4093 -2.40186,8.705 -3.96363,11.7682 -1.56177,3.0632 -5.01474,7.6778 -7.67326,10.2548 -2.65852,2.5769 -7.1219,5.8257 -9.9186,7.2197 -2.79671,1.3939 -7.74671,3.2569 -11,4.14 -3.53996,0.9609 -11.13506,1.7384 -18.91508,1.9364 z m 260,-10e-4 c -7.15,0.1864 -14.575,0.1492 -16.5,-0.083 -1.925,-0.2321 -6.425,-0.8926 -10,-1.4679 -3.575,-0.5752 -8.8765,-2.1262 -11.7812,-3.4466 -2.9047,-1.3204 -8.0159,-5.0067 -11.3583,-8.1918 -3.4162,-3.2553 -7.2884,-8.1993 -8.8433,-11.291 -1.5214,-3.025 -3.4976,-8.7389 -4.3917,-12.6974 -1.3538,-5.9947 -1.6255,-13.8919 -1.6255,-47.25027 l 0,-40.0526 19,0 19,0 0.022,40.75 c 0.02,37.39687 0.1731,41.07917 1.8587,44.74997 1.0103,2.2 2.7044,4.7704 3.7647,5.7119 1.0603,0.9415 3.5844,2.404 5.6091,3.25 2.0247,0.846 6.3664,1.5381 9.6483,1.5381 3.2818,0 7.2338,-0.4786 8.7821,-1.0636 1.5483,-0.585 4.0928,-2.2725 5.6544,-3.75 1.5616,-1.4775 3.5866,-4.0364 4.5,-5.6864 1.4574,-2.6328 1.6976,-8.0489 1.962,-44.24997 l 0.3012,-41.25 18.9488,0 18.9487,0 0,36.92764 c 0,20.90603 -0.467,40.28533 -1.0764,44.66673 -0.592,4.2565 -1.9869,10.1724 -3.0996,13.1466 -1.1128,2.9741 -4.1159,8.1577 -6.6736,11.5191 -2.5577,3.3614 -7.1254,7.782 -10.1504,9.8235 -3.025,2.0415 -8.65,4.6896 -12.5,5.8847 -5.2731,1.6368 -10.2072,2.2565 -20,2.5119 z m 342,0.048 c -6.6,0.1999 -14.6839,-0.058 -17.9643,-0.573 -3.2803,-0.5151 -8.2303,-1.6779 -11,-2.584 -2.7696,-0.9061 -7.2829,-2.7735 -10.0296,-4.1496 -2.7466,-1.3762 -7.965,-5.4765 -11.5964,-9.1118 -4.6602,-4.6651 -7.6577,-8.8159 -10.1891,-14.1095 -1.9726,-4.125 -4.3492,-11.2955 -5.2814,-15.9343 -1.2711,-6.3248 -1.5668,-11.45205 -1.1823,-20.50002 0.3921,-9.22976 1.1248,-13.96449 3.1172,-20.14413 1.4325,-4.44312 4.3348,-10.75558 6.4497,-14.02767 2.1149,-3.27209 6.2822,-8.09306 9.2607,-10.71325 2.9785,-2.6202 8.1155,-6.08769 11.4155,-7.70555 3.3,-1.61786 8.925,-3.71888 12.5,-4.66893 4.577,-1.21633 10.494,-1.73904 20,-1.76678 8.1037,-0.0237 15.6985,0.50116 19,1.31292 3.025,0.74378 9.2374,3.13121 13.8054,5.30539 5.8576,2.788 10.0256,5.67325 14.142,9.78967 3.7411,3.74111 7.1366,8.47832 9.4576,13.19461 1.9915,4.0469 4.2823,10.508 5.0906,14.358 0.8083,3.85 1.4775,12.08147 1.487,18.29216 0.01,6.40956 -0.6628,14.62498 -1.5556,18.99998 -0.8652,4.2393 -3.1376,10.9818 -5.0498,14.9833 -2.2226,4.651 -5.533,9.3621 -9.177,13.0601 -3.1351,3.1815 -8.1752,7.177 -11.2002,8.8787 -3.025,1.7018 -8.65,4.0742 -12.5,5.2721 -5.072,1.5781 -10.3051,2.2781 -19,2.5416 z m -1,-28.1473 c 2.75,-0.2659 6.853,-1.3717 9.1178,-2.4573 2.2649,-1.0856 4.8638,-2.798 5.7754,-3.8053 0.9116,-1.0073 2.6191,-4.4835 3.7945,-7.7248 1.6132,-4.4486 2.248,-8.9907 2.5894,-18.52918 0.3962,-11.06836 0.1696,-13.58831 -1.8267,-20.3127 -1.8891,-6.36355 -2.9667,-8.26543 -6.2993,-11.11804 -2.2112,-1.8927 -5.6248,-3.88698 -7.5857,-4.43172 -1.961,-0.54474 -5.7632,-0.99295 -8.4494,-0.99602 -2.6862,-0.003 -6.7362,0.54785 -9,1.22426 -2.3466,0.70115 -5.8856,2.99683 -8.2326,5.34026 -2.5569,2.55313 -4.8301,6.15999 -6,9.52016 -1.5031,4.31755 -1.8787,8.23625 -1.8602,19.40974 0.021,12.41604 0.2812,14.56574 2.3036,19.00004 1.2542,2.75 3.4938,6.2776 4.9768,7.8392 1.483,1.5616 4.0464,3.5546 5.6964,4.4288 1.65,0.8742 4.575,1.9285 6.5,2.3428 1.925,0.4143 5.75,0.5357 8.5,0.2698 z m -1465.631,26.6191 -30.869,0 0,-61.58745 0,-61.58749 35.25,0.42341 c 29.2466,0.3513 36.2591,0.71243 41.17514,2.1204 3.25882,0.93334 8.1895,2.91967 10.95705,4.41407 2.76755,1.4944 7.32661,5.04057 10.13124,7.88038 2.80462,2.83981 6.53058,8.01481 8.2799,11.5 1.74931,3.48519 3.97395,9.26171 4.94362,12.83671 1.38762,5.11587 1.75433,10.333 1.72211,24.5 -0.038,16.73317 -0.22093,18.49987 -2.59833,25.10207 -1.40657,3.9061 -4.24808,9.6491 -6.31446,12.7623 -2.06639,3.1131 -5.62214,7.2568 -7.90167,9.2081 -2.27953,1.9514 -6.8446,4.8618 -10.1446,6.4676 -3.40196,1.6553 -9.84553,3.5778 -14.88099,4.4397 -6.63431,1.1357 -16.69001,1.5202 -39.75001,1.5202 z m 16.381,-28.0055 c 5.0875,0 10.9235,-0.4704 12.9689,-1.0385 2.0455,-0.568 5.1515,-2.2382 6.9022,-3.7114 1.75084,-1.4732 4.10309,-4.7184 5.22727,-7.2115 1.62395,-3.6016 2.12898,-7.214 2.45769,-17.57982 0.31437,-9.91361 0.0202,-14.5829 -1.22504,-19.44346 -0.90132,-3.51819 -2.81446,-7.93813 -4.25142,-9.82208 -1.43697,-1.88396 -4.6865,-4.35921 -7.2211,-5.50055 -3.3127,-1.4917 -7.3499,-2.19391 -14.3585,-2.49747 l -9.75,-0.4223 0,33.61631 0,33.61627 9.25,-0.01 z m 86.78138,28.0055 c -10.46726,0 -19.03616,-0.3375 -19.042,-0.75 -0.006,-0.4125 10.18799,-27.8712 22.65296,-61.01941 l 22.66356,-60.26944 20.98593,0.26944 20.98593,0.26944 20.87482,55.5 c 11.48115,30.52497 21.76234,57.86247 22.84709,60.74997 l 1.97226,5.25 -19.84159,0 -19.8416,0 -2.88788,-10 -2.88788,-10 -21.72434,0 -21.72435,0 -2.59679,8.75 c -1.42824,4.8125 -2.77858,9.3125 -3.00076,10 -0.30445,0.9421 -5.09236,1.25 -19.43536,1.25 z m 46.61646,-47 c 7.34369,0 13.35216,-0.2707 13.35216,-0.6017 0,-0.3309 -2.75159,-9.44342 -6.11464,-20.24998 -3.36306,-10.80656 -6.40588,-20.18833 -6.76183,-20.84838 -0.35595,-0.66006 -3.61283,8.45244 -7.23752,20.25 l -6.59033,21.45006 13.35216,0 z m 99.35216,47 -19,0 0,-61.49997 0,-61.5 19,0 19,0 0,21.5 0,21.5 20.48011,0 20.48011,0 0.26989,-21.25 0.26989,-21.25 19,0 19,0 0.25769,61.25 0.25768,61.24997 -19.50768,0 -19.50769,0 0,-25 0,-25 -20.5,0 -20.5,0 0,25 0,25 -19,0 z m 172.5,0 -48.5,0 0,-61.49997 0,-61.5 19,0 19,0 0,46.5 0,46.49997 29.5,0 29.5,0 0,15 0,15 -48.5,0 z m 118,0 -51.5,0 0,-61.49997 0,-61.5 50.5,0 50.5,0 0,13 0,13 -31.5,0 -31.5,0 0,10 0,10 29.5,0 29.5,0 0,12.5 0,12.5 -29.5,0 -29.5,0 0,11.99997 0,12 32.5,0 32.5,0 0,14 0,14 -51.5,0 z m 90.48652,0 -17.98652,0 0,-61.49997 0,-61.5 17.75,0.0398 17.75,0.0398 20.99548,31.00163 c 11.54751,17.0509 21.99382,32.22048 23.21403,33.71019 l 2.21856,2.70856 0.036,-33.77307 0.036,-33.77307 17.75,0.27307 17.75,0.27307 0.25769,61.25 0.25768,61.24999 -18.25768,-0.05 -18.25769,-0.05 -22.5,-33.0782 -22.5,-33.07824 -0.26348,33.12794 -0.26348,33.1279 -17.98652,0 z m 603.88248,0 -30.869,0 0,-61.58745 0,-61.58749 35.25,0.42341 c 29.2466,0.3513 36.2591,0.71243 41.1751,2.1204 3.2589,0.93334 8.1895,2.91967 10.9571,4.41407 2.7675,1.4944 7.3266,5.04057 10.1312,7.88038 2.8047,2.83981 6.5306,8.01481 8.2799,11.5 1.7493,3.48519 3.974,9.26171 4.9437,12.83671 1.3876,5.11587 1.7543,10.333 1.7221,24.5 -0.038,16.73317 -0.221,18.49987 -2.5984,25.10207 -1.4065,3.9061 -4.2481,9.6491 -6.3144,12.7623 -2.0664,3.1131 -5.6222,7.2568 -7.9017,9.2081 -2.2795,1.9514 -6.8446,4.8618 -10.1446,6.4676 -3.402,1.6553 -9.8455,3.5778 -14.881,4.4397 -6.6343,1.1357 -16.69,1.5202 -39.75,1.5202 z m 16.381,-28.0055 c 5.0875,0 10.9235,-0.4704 12.9689,-1.0385 2.0455,-0.568 5.1515,-2.2382 6.9022,-3.7114 1.7508,-1.4732 4.1031,-4.7184 5.2273,-7.2115 1.6239,-3.6016 2.129,-7.214 2.4577,-17.57982 0.3143,-9.91361 0.02,-14.5829 -1.2251,-19.44346 -0.9013,-3.51819 -2.8144,-7.93813 -4.2514,-9.82208 -1.437,-1.88396 -4.6865,-4.35921 -7.2211,-5.50055 -3.3127,-1.4917 -7.3499,-2.19391 -14.3585,-2.49747 l -9.75,-0.4223 0,33.61631 0,33.61627 9.25,-0.01 z m 106.75,28.0055 -19,0 0,-61.49997 0,-61.5 19,0 19,0 0,61.5 0,61.49997 -19,0 z m -372,-1 -19,0 0,-46 0,-45.99997 -19.5,0 -19.5,0 0,-15 0,-15 58,0 58,0 0,15 0,15 -19.5,0 -19.5,0 0,45.99997 0,46 -19,0 z"
    />
  </g>
</svg>
